<?xml version="1.0" encoding="UTF-8"?>
<svg xmlns="http://www.w3.org/2000/svg" width="900" height="620" viewBox="0 0 900 620" role="img" aria-label="Монофазна 10kW Dyness 14.3kWh">
  <defs>
    <linearGradient id="sky" x1="0" y1="0" x2="1" y2="1"><stop offset="0" stop-color="#082B4B"/><stop offset=".52" stop-color="#0D5A38"/><stop offset="1" stop-color="#B47B18"/></linearGradient>
    <radialGradient id="goldGlow" cx=".78" cy=".34" r=".62"><stop offset="0" stop-color="#F7C75B" stop-opacity=".45"/><stop offset="1" stop-color="#F7C75B" stop-opacity="0"/></radialGradient>
    <linearGradient id="glass" x1="0" y1="0" x2="1" y2="1"><stop offset="0" stop-color="#37699F"/><stop offset=".42" stop-color="#111F38"/><stop offset="1" stop-color="#020617"/></linearGradient>
    <linearGradient id="device" x1="0" y1="0" x2="1" y2="1"><stop offset="0" stop-color="#FFFFFF"/><stop offset="1" stop-color="#D8E2EC"/></linearGradient>
    <linearGradient id="grass" x1="0" y1="0" x2="0" y2="1"><stop offset="0" stop-color="#91D363"/><stop offset=".58" stop-color="#4F8D3D"/><stop offset="1" stop-color="#17482F"/></linearGradient>
    <filter id="shadow" x="-25%" y="-25%" width="150%" height="160%"><feDropShadow dx="0" dy="18" stdDeviation="15" flood-color="#020617" flood-opacity=".45"/></filter>
  </defs>
  <rect width="900" height="620" rx="34" fill="url(#sky)"/>
  <rect width="900" height="620" rx="34" fill="url(#goldGlow)"/>
  <path class="offer-grass" d="M0 493c96 -35 190 -33 300 -5 125 31 219 28 333 -7 100 -31 188 -25 267 11v128H0z" fill="url(#grass)"/>
  <path class="offer-grass" d="M0 560c103 -24 208 -20 315 -1 116 21 228 20 340 -2 102 -20 184 -15 245 10v53H0z" fill="#143F2A" opacity=".48"/>
  <path d="M12 606c-8 -18 -4 -29 3 -38" stroke="#A6DF76" stroke-width="3.2" stroke-linecap="round" opacity=".78"/><path d="M28 606c9 -23 13 -34 20 -43" stroke="#A6DF76" stroke-width="3.2" stroke-linecap="round" opacity=".78"/><path d="M44 606c-8 -28 -4 -39 3 -48" stroke="#A6DF76" stroke-width="3.2" stroke-linecap="round" opacity=".78"/><path d="M60 606c9 -33 13 -44 20 -53" stroke="#A6DF76" stroke-width="3.2" stroke-linecap="round" opacity=".78"/><path d="M76 606c-8 -38 -4 -49 3 -58" stroke="#A6DF76" stroke-width="3.2" stroke-linecap="round" opacity=".78"/><path d="M92 606c9 -43 13 -54 20 -63" stroke="#A6DF76" stroke-width="3.2" stroke-linecap="round" opacity=".78"/><path d="M108 606c-8 -18 -4 -29 3 -38" stroke="#A6DF76" stroke-width="3.2" stroke-linecap="round" opacity=".78"/><path d="M124 606c9 -23 13 -34 20 -43" stroke="#A6DF76" stroke-width="3.2" stroke-linecap="round" opacity=".78"/><path d="M140 606c-8 -28 -4 -39 3 -48" stroke="#A6DF76" stroke-width="3.2" stroke-linecap="round" opacity=".78"/><path d="M156 606c9 -33 13 -44 20 -53" stroke="#A6DF76" stroke-width="3.2" stroke-linecap="round" opacity=".78"/><path d="M172 606c-8 -38 -4 -49 3 -58" stroke="#A6DF76" stroke-width="3.2" stroke-linecap="round" opacity=".78"/><path d="M188 606c9 -43 13 -54 20 -63" stroke="#A6DF76" stroke-width="3.2" stroke-linecap="round" opacity=".78"/><path d="M204 606c-8 -18 -4 -29 3 -38" stroke="#A6DF76" stroke-width="3.2" stroke-linecap="round" opacity=".78"/><path d="M220 606c9 -23 13 -34 20 -43" stroke="#A6DF76" stroke-width="3.2" stroke-linecap="round" opacity=".78"/><path d="M236 606c-8 -28 -4 -39 3 -48" stroke="#A6DF76" stroke-width="3.2" stroke-linecap="round" opacity=".78"/><path d="M252 606c9 -33 13 -44 20 -53" stroke="#A6DF76" stroke-width="3.2" stroke-linecap="round" opacity=".78"/><path d="M268 606c-8 -38 -4 -49 3 -58" stroke="#A6DF76" stroke-width="3.2" stroke-linecap="round" opacity=".78"/><path d="M284 606c9 -43 13 -54 20 -63" stroke="#A6DF76" stroke-width="3.2" stroke-linecap="round" opacity=".78"/><path d="M300 606c-8 -18 -4 -29 3 -38" stroke="#A6DF76" stroke-width="3.2" stroke-linecap="round" opacity=".78"/><path d="M316 606c9 -23 13 -34 20 -43" stroke="#A6DF76" stroke-width="3.2" stroke-linecap="round" opacity=".78"/><path d="M332 606c-8 -28 -4 -39 3 -48" stroke="#A6DF76" stroke-width="3.2" stroke-linecap="round" opacity=".78"/><path d="M348 606c9 -33 13 -44 20 -53" stroke="#A6DF76" stroke-width="3.2" stroke-linecap="round" opacity=".78"/><path d="M364 606c-8 -38 -4 -49 3 -58" stroke="#A6DF76" stroke-width="3.2" stroke-linecap="round" opacity=".78"/><path d="M380 606c9 -43 13 -54 20 -63" stroke="#A6DF76" stroke-width="3.2" stroke-linecap="round" opacity=".78"/><path d="M396 606c-8 -18 -4 -29 3 -38" stroke="#A6DF76" stroke-width="3.2" stroke-linecap="round" opacity=".78"/><path d="M412 606c9 -23 13 -34 20 -43" stroke="#A6DF76" stroke-width="3.2" stroke-linecap="round" opacity=".78"/><path d="M428 606c-8 -28 -4 -39 3 -48" stroke="#A6DF76" stroke-width="3.2" stroke-linecap="round" opacity=".78"/><path d="M444 606c9 -33 13 -44 20 -53" stroke="#A6DF76" stroke-width="3.2" stroke-linecap="round" opacity=".78"/><path d="M460 606c-8 -38 -4 -49 3 -58" stroke="#A6DF76" stroke-width="3.2" stroke-linecap="round" opacity=".78"/><path d="M476 606c9 -43 13 -54 20 -63" stroke="#A6DF76" stroke-width="3.2" stroke-linecap="round" opacity=".78"/><path d="M492 606c-8 -18 -4 -29 3 -38" stroke="#A6DF76" stroke-width="3.2" stroke-linecap="round" opacity=".78"/><path d="M508 606c9 -23 13 -34 20 -43" stroke="#A6DF76" stroke-width="3.2" stroke-linecap="round" opacity=".78"/><path d="M524 606c-8 -28 -4 -39 3 -48" stroke="#A6DF76" stroke-width="3.2" stroke-linecap="round" opacity=".78"/><path d="M540 606c9 -33 13 -44 20 -53" stroke="#A6DF76" stroke-width="3.2" stroke-linecap="round" opacity=".78"/><path d="M556 606c-8 -38 -4 -49 3 -58" stroke="#A6DF76" stroke-width="3.2" stroke-linecap="round" opacity=".78"/><path d="M572 606c9 -43 13 -54 20 -63" stroke="#A6DF76" stroke-width="3.2" stroke-linecap="round" opacity=".78"/><path d="M588 606c-8 -18 -4 -29 3 -38" stroke="#A6DF76" stroke-width="3.2" stroke-linecap="round" opacity=".78"/><path d="M604 606c9 -23 13 -34 20 -43" stroke="#A6DF76" stroke-width="3.2" stroke-linecap="round" opacity=".78"/><path d="M620 606c-8 -28 -4 -39 3 -48" stroke="#A6DF76" stroke-width="3.2" stroke-linecap="round" opacity=".78"/><path d="M636 606c9 -33 13 -44 20 -53" stroke="#A6DF76" stroke-width="3.2" stroke-linecap="round" opacity=".78"/><path d="M652 606c-8 -38 -4 -49 3 -58" stroke="#A6DF76" stroke-width="3.2" stroke-linecap="round" opacity=".78"/><path d="M668 606c9 -43 13 -54 20 -63" stroke="#A6DF76" stroke-width="3.2" stroke-linecap="round" opacity=".78"/><path d="M684 606c-8 -18 -4 -29 3 -38" stroke="#A6DF76" stroke-width="3.2" stroke-linecap="round" opacity=".78"/><path d="M700 606c9 -23 13 -34 20 -43" stroke="#A6DF76" stroke-width="3.2" stroke-linecap="round" opacity=".78"/><path d="M716 606c-8 -28 -4 -39 3 -48" stroke="#A6DF76" stroke-width="3.2" stroke-linecap="round" opacity=".78"/><path d="M732 606c9 -33 13 -44 20 -53" stroke="#A6DF76" stroke-width="3.2" stroke-linecap="round" opacity=".78"/><path d="M748 606c-8 -38 -4 -49 3 -58" stroke="#A6DF76" stroke-width="3.2" stroke-linecap="round" opacity=".78"/><path d="M764 606c9 -43 13 -54 20 -63" stroke="#A6DF76" stroke-width="3.2" stroke-linecap="round" opacity=".78"/><path d="M780 606c-8 -18 -4 -29 3 -38" stroke="#A6DF76" stroke-width="3.2" stroke-linecap="round" opacity=".78"/><path d="M796 606c9 -23 13 -34 20 -43" stroke="#A6DF76" stroke-width="3.2" stroke-linecap="round" opacity=".78"/><path d="M812 606c-8 -28 -4 -39 3 -48" stroke="#A6DF76" stroke-width="3.2" stroke-linecap="round" opacity=".78"/><path d="M828 606c9 -33 13 -44 20 -53" stroke="#A6DF76" stroke-width="3.2" stroke-linecap="round" opacity=".78"/><path d="M844 606c-8 -38 -4 -49 3 -58" stroke="#A6DF76" stroke-width="3.2" stroke-linecap="round" opacity=".78"/><path d="M860 606c9 -43 13 -54 20 -63" stroke="#A6DF76" stroke-width="3.2" stroke-linecap="round" opacity=".78"/><path d="M876 606c-8 -18 -4 -29 3 -38" stroke="#A6DF76" stroke-width="3.2" stroke-linecap="round" opacity=".78"/><path d="M892 606c9 -23 13 -34 20 -43" stroke="#A6DF76" stroke-width="3.2" stroke-linecap="round" opacity=".78"/><path d="M908 606c-8 -28 -4 -39 3 -48" stroke="#A6DF76" stroke-width="3.2" stroke-linecap="round" opacity=".78"/><path d="M924 606c9 -33 13 -44 20 -53" stroke="#A6DF76" stroke-width="3.2" stroke-linecap="round" opacity=".78"/>

  <g font-family="Arial, sans-serif" text-anchor="middle">
    <text x="450" y="70" font-size="46" font-weight="900" fill="#FFFFFF">Монофазна</text>
    <text x="450" y="144" font-size="80" font-weight="900" fill="#F4C461">10kW + Dyness</text>
    <text x="450" y="198" font-size="40" font-weight="900" fill="#FFFFFF">батерия 14.3kWh</text>
  </g>

  <g class="solar-module" filter="url(#shadow)">
    <g transform="translate(218 260) rotate(-9)"><rect width="284" height="264" rx="13" fill="#F8FAFC"/><rect x="17" y="17" width="250" height="230" rx="8" fill="url(#glass)"/><line x1="62.714285714285715" y1="32" x2="62.714285714285715" y2="232" stroke="#D9E7F5" stroke-width="2.5" opacity=".84"/><line x1="94.42857142857143" y1="32" x2="94.42857142857143" y2="232" stroke="#D9E7F5" stroke-width="2.5" opacity=".84"/><line x1="126.14285714285714" y1="32" x2="126.14285714285714" y2="232" stroke="#D9E7F5" stroke-width="2.5" opacity=".84"/><line x1="157.85714285714286" y1="32" x2="157.85714285714286" y2="232" stroke="#D9E7F5" stroke-width="2.5" opacity=".84"/><line x1="189.57142857142858" y1="32" x2="189.57142857142858" y2="232" stroke="#D9E7F5" stroke-width="2.5" opacity=".84"/><line x1="221.28571428571428" y1="32" x2="221.28571428571428" y2="232" stroke="#D9E7F5" stroke-width="2.5" opacity=".84"/><line x1="31" y1="65.33333333333334" x2="253" y2="65.33333333333334" stroke="#D9E7F5" stroke-width="2.5" opacity=".84"/><line x1="31" y1="98.66666666666667" x2="253" y2="98.66666666666667" stroke="#D9E7F5" stroke-width="2.5" opacity=".84"/><line x1="31" y1="132" x2="253" y2="132" stroke="#D9E7F5" stroke-width="2.5" opacity=".84"/><line x1="31" y1="165.33333333333334" x2="253" y2="165.33333333333334" stroke="#D9E7F5" stroke-width="2.5" opacity=".84"/><line x1="31" y1="198.66666666666669" x2="253" y2="198.66666666666669" stroke="#D9E7F5" stroke-width="2.5" opacity=".84"/><path d="M42 30L248 228" stroke="#FFFFFF" stroke-width="7" opacity=".1"/></g>
    <g transform="translate(302 240) rotate(-4)"><rect width="300" height="286" rx="13" fill="#F8FAFC"/><rect x="18" y="18" width="264" height="250" rx="8" fill="url(#glass)"/><line x1="66.42857142857143" y1="34" x2="66.42857142857143" y2="256" stroke="#D9E7F5" stroke-width="2.5" opacity=".84"/><line x1="99.85714285714286" y1="34" x2="99.85714285714286" y2="256" stroke="#D9E7F5" stroke-width="2.5" opacity=".84"/><line x1="133.28571428571428" y1="34" x2="133.28571428571428" y2="256" stroke="#D9E7F5" stroke-width="2.5" opacity=".84"/><line x1="166.71428571428572" y1="34" x2="166.71428571428572" y2="256" stroke="#D9E7F5" stroke-width="2.5" opacity=".84"/><line x1="200.14285714285717" y1="34" x2="200.14285714285717" y2="256" stroke="#D9E7F5" stroke-width="2.5" opacity=".84"/><line x1="233.57142857142858" y1="34" x2="233.57142857142858" y2="256" stroke="#D9E7F5" stroke-width="2.5" opacity=".84"/><line x1="33" y1="71" x2="267" y2="71" stroke="#D9E7F5" stroke-width="2.5" opacity=".84"/><line x1="33" y1="108" x2="267" y2="108" stroke="#D9E7F5" stroke-width="2.5" opacity=".84"/><line x1="33" y1="145" x2="267" y2="145" stroke="#D9E7F5" stroke-width="2.5" opacity=".84"/><line x1="33" y1="182" x2="267" y2="182" stroke="#D9E7F5" stroke-width="2.5" opacity=".84"/><line x1="33" y1="219" x2="267" y2="219" stroke="#D9E7F5" stroke-width="2.5" opacity=".84"/><path d="M46 32L263 246" stroke="#FFFFFF" stroke-width="8" opacity=".1"/></g>
    <g transform="translate(392 224)"><rect width="326" height="314" rx="14" fill="#FFFFFF"/><rect x="19" y="19" width="288" height="276" rx="8" fill="url(#glass)"/><line x1="72.28571428571428" y1="37" x2="72.28571428571428" y2="281" stroke="#D9E7F5" stroke-width="2.5" opacity=".84"/><line x1="108.57142857142857" y1="37" x2="108.57142857142857" y2="281" stroke="#D9E7F5" stroke-width="2.5" opacity=".84"/><line x1="144.85714285714286" y1="37" x2="144.85714285714286" y2="281" stroke="#D9E7F5" stroke-width="2.5" opacity=".84"/><line x1="181.14285714285714" y1="37" x2="181.14285714285714" y2="281" stroke="#D9E7F5" stroke-width="2.5" opacity=".84"/><line x1="217.42857142857142" y1="37" x2="217.42857142857142" y2="281" stroke="#D9E7F5" stroke-width="2.5" opacity=".84"/><line x1="253.71428571428572" y1="37" x2="253.71428571428572" y2="281" stroke="#D9E7F5" stroke-width="2.5" opacity=".84"/><line x1="36" y1="77.66666666666666" x2="290" y2="77.66666666666666" stroke="#D9E7F5" stroke-width="2.5" opacity=".84"/><line x1="36" y1="118.33333333333333" x2="290" y2="118.33333333333333" stroke="#D9E7F5" stroke-width="2.5" opacity=".84"/><line x1="36" y1="159" x2="290" y2="159" stroke="#D9E7F5" stroke-width="2.5" opacity=".84"/><line x1="36" y1="199.66666666666666" x2="290" y2="199.66666666666666" stroke="#D9E7F5" stroke-width="2.5" opacity=".84"/><line x1="36" y1="240.33333333333331" x2="290" y2="240.33333333333331" stroke="#D9E7F5" stroke-width="2.5" opacity=".84"/><path d="M56 32L296 274" stroke="#FFFFFF" stroke-width="9" opacity=".1"/></g>
  </g>

  <g class="hero-product" filter="url(#shadow)">
    <rect x="52" y="324" width="180" height="230" rx="23" fill="url(#device)"/>
    <rect x="88" y="378" width="108" height="82" rx="11" fill="#0F172A"/>
    <rect x="113" y="403" width="58" height="19" rx="4" fill="#F8FAFC"/>
    <circle cx="142" cy="445" r="11" fill="#4F8D3D"/>
    <rect x="78" y="534" width="128" height="9" rx="5" fill="#CBD5E1" opacity=".65"/>
  </g>
  <g class="hero-product" filter="url(#shadow)">
    <rect x="702" y="318" width="138" height="236" rx="23" fill="url(#device)"/>
    <rect x="724" y="358" width="94" height="32" rx="8" fill="#4F8D3D"/><rect x="726" y="438" width="90" height="10" rx="5" fill="#CBD5E1"/><rect x="726" y="488" width="90" height="10" rx="5" fill="#CBD5E1"/>
    <rect x="724" y="530" width="94" height="9" rx="5" fill="#CBD5E1" opacity=".65"/>
  </g>
  <g transform="translate(30 244)">
    <rect width="204" height="62" rx="31" fill="#F4C461" opacity=".98"/>
    <text x="102" y="41" text-anchor="middle" font-family="Arial, sans-serif" font-size="30" font-weight="900" fill="#0F172A">N-Type</text>
  </g>
</svg>
