<?xml version="1.0" encoding="UTF-8"?>
<svg xmlns="http://www.w3.org/2000/svg" width="900" height="620" viewBox="0 0 900 620" role="img" aria-label="Монофазна 8kW Deye 16kWh">
  <defs>
    <linearGradient id="sky" x1="0" y1="0" x2="1" y2="1"><stop offset="0" stop-color="#11385C"/><stop offset=".55" stop-color="#0F5132"/><stop offset="1" stop-color="#D79B2B"/></linearGradient>
    <linearGradient id="glass" x1="0" y1="0" x2="1" y2="1"><stop offset="0" stop-color="#284A74"/><stop offset=".48" stop-color="#0B172A"/><stop offset="1" stop-color="#020617"/></linearGradient>
    <linearGradient id="device" x1="0" y1="0" x2="1" y2="1"><stop offset="0" stop-color="#FFFFFF"/><stop offset="1" stop-color="#D8E2EC"/></linearGradient>
    <linearGradient id="grass" x1="0" y1="0" x2="0" y2="1"><stop offset="0" stop-color="#83C35A"/><stop offset=".58" stop-color="#4F8D3D"/><stop offset="1" stop-color="#1D5B35"/></linearGradient>
    <filter id="shadow" x="-25%" y="-25%" width="150%" height="160%"><feDropShadow dx="0" dy="18" stdDeviation="14" flood-color="#020617" flood-opacity=".42"/></filter>
    <clipPath id="shineClip"><rect x="0" y="0" width="280" height="255" rx="10"/></clipPath>
  </defs>
  <rect width="900" height="620" rx="34" fill="url(#sky)"/>
  <circle cx="735" cy="114" r="48" fill="#F4C461" opacity=".95">
    <animate attributeName="opacity" values=".78;.98;.78" dur="4.8s" repeatCount="indefinite"/>
  </circle>
  <circle cx="160" cy="486" r="270" fill="#FFFFFF" opacity=".11"/>
  <path class="offer-grass" d="M0 500c105 -34 194 -31 302 -6 112 26 205 27 317 -4 102 -28 193 -27 281 10v120H0z" fill="url(#grass)"/>
  <path class="offer-grass" d="M0 560c104 -23 208 -18 312 0 114 20 226 20 336 -1 101 -19 183 -16 252 8v53H0z" fill="#184D31" opacity=".45"/>
  <path d="M22 602c-7 -16 -4 -25 2 -34" stroke="#9BD56B" stroke-width="3" stroke-linecap="round" opacity=".75"/><path d="M39 602c8 -22 11 -31 17 -40" stroke="#9BD56B" stroke-width="3" stroke-linecap="round" opacity=".75"/><path d="M56 602c-7 -28 -4 -37 2 -46" stroke="#9BD56B" stroke-width="3" stroke-linecap="round" opacity=".75"/><path d="M73 602c8 -34 11 -43 17 -52" stroke="#9BD56B" stroke-width="3" stroke-linecap="round" opacity=".75"/><path d="M90 602c-7 -40 -4 -49 2 -58" stroke="#9BD56B" stroke-width="3" stroke-linecap="round" opacity=".75"/><path d="M107 602c8 -16 11 -25 17 -34" stroke="#9BD56B" stroke-width="3" stroke-linecap="round" opacity=".75"/><path d="M124 602c-7 -22 -4 -31 2 -40" stroke="#9BD56B" stroke-width="3" stroke-linecap="round" opacity=".75"/><path d="M141 602c8 -28 11 -37 17 -46" stroke="#9BD56B" stroke-width="3" stroke-linecap="round" opacity=".75"/><path d="M158 602c-7 -34 -4 -43 2 -52" stroke="#9BD56B" stroke-width="3" stroke-linecap="round" opacity=".75"/><path d="M175 602c8 -40 11 -49 17 -58" stroke="#9BD56B" stroke-width="3" stroke-linecap="round" opacity=".75"/><path d="M192 602c-7 -16 -4 -25 2 -34" stroke="#9BD56B" stroke-width="3" stroke-linecap="round" opacity=".75"/><path d="M209 602c8 -22 11 -31 17 -40" stroke="#9BD56B" stroke-width="3" stroke-linecap="round" opacity=".75"/><path d="M226 602c-7 -28 -4 -37 2 -46" stroke="#9BD56B" stroke-width="3" stroke-linecap="round" opacity=".75"/><path d="M243 602c8 -34 11 -43 17 -52" stroke="#9BD56B" stroke-width="3" stroke-linecap="round" opacity=".75"/><path d="M260 602c-7 -40 -4 -49 2 -58" stroke="#9BD56B" stroke-width="3" stroke-linecap="round" opacity=".75"/><path d="M277 602c8 -16 11 -25 17 -34" stroke="#9BD56B" stroke-width="3" stroke-linecap="round" opacity=".75"/><path d="M294 602c-7 -22 -4 -31 2 -40" stroke="#9BD56B" stroke-width="3" stroke-linecap="round" opacity=".75"/><path d="M311 602c8 -28 11 -37 17 -46" stroke="#9BD56B" stroke-width="3" stroke-linecap="round" opacity=".75"/><path d="M328 602c-7 -34 -4 -43 2 -52" stroke="#9BD56B" stroke-width="3" stroke-linecap="round" opacity=".75"/><path d="M345 602c8 -40 11 -49 17 -58" stroke="#9BD56B" stroke-width="3" stroke-linecap="round" opacity=".75"/><path d="M362 602c-7 -16 -4 -25 2 -34" stroke="#9BD56B" stroke-width="3" stroke-linecap="round" opacity=".75"/><path d="M379 602c8 -22 11 -31 17 -40" stroke="#9BD56B" stroke-width="3" stroke-linecap="round" opacity=".75"/><path d="M396 602c-7 -28 -4 -37 2 -46" stroke="#9BD56B" stroke-width="3" stroke-linecap="round" opacity=".75"/><path d="M413 602c8 -34 11 -43 17 -52" stroke="#9BD56B" stroke-width="3" stroke-linecap="round" opacity=".75"/><path d="M430 602c-7 -40 -4 -49 2 -58" stroke="#9BD56B" stroke-width="3" stroke-linecap="round" opacity=".75"/><path d="M447 602c8 -16 11 -25 17 -34" stroke="#9BD56B" stroke-width="3" stroke-linecap="round" opacity=".75"/><path d="M464 602c-7 -22 -4 -31 2 -40" stroke="#9BD56B" stroke-width="3" stroke-linecap="round" opacity=".75"/><path d="M481 602c8 -28 11 -37 17 -46" stroke="#9BD56B" stroke-width="3" stroke-linecap="round" opacity=".75"/><path d="M498 602c-7 -34 -4 -43 2 -52" stroke="#9BD56B" stroke-width="3" stroke-linecap="round" opacity=".75"/><path d="M515 602c8 -40 11 -49 17 -58" stroke="#9BD56B" stroke-width="3" stroke-linecap="round" opacity=".75"/><path d="M532 602c-7 -16 -4 -25 2 -34" stroke="#9BD56B" stroke-width="3" stroke-linecap="round" opacity=".75"/><path d="M549 602c8 -22 11 -31 17 -40" stroke="#9BD56B" stroke-width="3" stroke-linecap="round" opacity=".75"/><path d="M566 602c-7 -28 -4 -37 2 -46" stroke="#9BD56B" stroke-width="3" stroke-linecap="round" opacity=".75"/><path d="M583 602c8 -34 11 -43 17 -52" stroke="#9BD56B" stroke-width="3" stroke-linecap="round" opacity=".75"/><path d="M600 602c-7 -40 -4 -49 2 -58" stroke="#9BD56B" stroke-width="3" stroke-linecap="round" opacity=".75"/><path d="M617 602c8 -16 11 -25 17 -34" stroke="#9BD56B" stroke-width="3" stroke-linecap="round" opacity=".75"/><path d="M634 602c-7 -22 -4 -31 2 -40" stroke="#9BD56B" stroke-width="3" stroke-linecap="round" opacity=".75"/><path d="M651 602c8 -28 11 -37 17 -46" stroke="#9BD56B" stroke-width="3" stroke-linecap="round" opacity=".75"/><path d="M668 602c-7 -34 -4 -43 2 -52" stroke="#9BD56B" stroke-width="3" stroke-linecap="round" opacity=".75"/><path d="M685 602c8 -40 11 -49 17 -58" stroke="#9BD56B" stroke-width="3" stroke-linecap="round" opacity=".75"/><path d="M702 602c-7 -16 -4 -25 2 -34" stroke="#9BD56B" stroke-width="3" stroke-linecap="round" opacity=".75"/><path d="M719 602c8 -22 11 -31 17 -40" stroke="#9BD56B" stroke-width="3" stroke-linecap="round" opacity=".75"/><path d="M736 602c-7 -28 -4 -37 2 -46" stroke="#9BD56B" stroke-width="3" stroke-linecap="round" opacity=".75"/><path d="M753 602c8 -34 11 -43 17 -52" stroke="#9BD56B" stroke-width="3" stroke-linecap="round" opacity=".75"/><path d="M770 602c-7 -40 -4 -49 2 -58" stroke="#9BD56B" stroke-width="3" stroke-linecap="round" opacity=".75"/><path d="M787 602c8 -16 11 -25 17 -34" stroke="#9BD56B" stroke-width="3" stroke-linecap="round" opacity=".75"/><path d="M804 602c-7 -22 -4 -31 2 -40" stroke="#9BD56B" stroke-width="3" stroke-linecap="round" opacity=".75"/><path d="M821 602c8 -28 11 -37 17 -46" stroke="#9BD56B" stroke-width="3" stroke-linecap="round" opacity=".75"/><path d="M838 602c-7 -34 -4 -43 2 -52" stroke="#9BD56B" stroke-width="3" stroke-linecap="round" opacity=".75"/><path d="M855 602c8 -40 11 -49 17 -58" stroke="#9BD56B" stroke-width="3" stroke-linecap="round" opacity=".75"/><path d="M872 602c-7 -16 -4 -25 2 -34" stroke="#9BD56B" stroke-width="3" stroke-linecap="round" opacity=".75"/><path d="M889 602c8 -22 11 -31 17 -40" stroke="#9BD56B" stroke-width="3" stroke-linecap="round" opacity=".75"/>

  <g font-family="Arial, sans-serif" text-anchor="middle">
    <text x="450" y="78" font-size="50" font-weight="900" fill="#FFFFFF">Монофазна</text>
    <text x="450" y="151" font-size="76" font-weight="900" fill="#F4C461">8kW + Deye</text>
    <text x="450" y="208" font-size="42" font-weight="900" fill="#FFFFFF">батерия 16kWh</text>
  </g>

  <g class="solar-module" filter="url(#shadow)">
    <g transform="translate(242 278) rotate(-8)"><rect width="258" height="238" rx="11" fill="#EDF3F8"/><rect x="14" y="14" width="230" height="210" rx="6" fill="url(#glass)"/><line x1="58.333333333333336" y1="24" x2="58.333333333333336" y2="214" stroke="#D7E2EE" stroke-width="2.1" opacity=".82"/><line x1="93.66666666666667" y1="24" x2="93.66666666666667" y2="214" stroke="#D7E2EE" stroke-width="2.1" opacity=".82"/><line x1="129" y1="24" x2="129" y2="214" stroke="#D7E2EE" stroke-width="2.1" opacity=".82"/><line x1="164.33333333333334" y1="24" x2="164.33333333333334" y2="214" stroke="#D7E2EE" stroke-width="2.1" opacity=".82"/><line x1="199.66666666666669" y1="24" x2="199.66666666666669" y2="214" stroke="#D7E2EE" stroke-width="2.1" opacity=".82"/><line x1="23" y1="62" x2="235" y2="62" stroke="#D7E2EE" stroke-width="2.1" opacity=".82"/><line x1="23" y1="100" x2="235" y2="100" stroke="#D7E2EE" stroke-width="2.1" opacity=".82"/><line x1="23" y1="138" x2="235" y2="138" stroke="#D7E2EE" stroke-width="2.1" opacity=".82"/><line x1="23" y1="176" x2="235" y2="176" stroke="#D7E2EE" stroke-width="2.1" opacity=".82"/></g>
    <g transform="translate(316 258) rotate(-3)"><rect width="270" height="258" rx="11" fill="#EDF3F8"/><rect x="15" y="15" width="240" height="228" rx="6" fill="url(#glass)"/><line x1="61.666666666666664" y1="26" x2="61.666666666666664" y2="232" stroke="#D7E2EE" stroke-width="2.1" opacity=".82"/><line x1="98.33333333333333" y1="26" x2="98.33333333333333" y2="232" stroke="#D7E2EE" stroke-width="2.1" opacity=".82"/><line x1="135" y1="26" x2="135" y2="232" stroke="#D7E2EE" stroke-width="2.1" opacity=".82"/><line x1="171.66666666666666" y1="26" x2="171.66666666666666" y2="232" stroke="#D7E2EE" stroke-width="2.1" opacity=".82"/><line x1="208.33333333333331" y1="26" x2="208.33333333333331" y2="232" stroke="#D7E2EE" stroke-width="2.1" opacity=".82"/><line x1="25" y1="67.2" x2="245" y2="67.2" stroke="#D7E2EE" stroke-width="2.1" opacity=".82"/><line x1="25" y1="108.4" x2="245" y2="108.4" stroke="#D7E2EE" stroke-width="2.1" opacity=".82"/><line x1="25" y1="149.60000000000002" x2="245" y2="149.60000000000002" stroke="#D7E2EE" stroke-width="2.1" opacity=".82"/><line x1="25" y1="190.8" x2="245" y2="190.8" stroke="#D7E2EE" stroke-width="2.1" opacity=".82"/></g>
    <g transform="translate(392 248)"><rect width="292" height="280" rx="12" fill="#F8FAFC"/><rect x="17" y="17" width="258" height="246" rx="7" fill="url(#glass)"/><line x1="68" y1="30" x2="68" y2="250" stroke="#D7E2EE" stroke-width="2.1" opacity=".82"/><line x1="107" y1="30" x2="107" y2="250" stroke="#D7E2EE" stroke-width="2.1" opacity=".82"/><line x1="146" y1="30" x2="146" y2="250" stroke="#D7E2EE" stroke-width="2.1" opacity=".82"/><line x1="185" y1="30" x2="185" y2="250" stroke="#D7E2EE" stroke-width="2.1" opacity=".82"/><line x1="224" y1="30" x2="224" y2="250" stroke="#D7E2EE" stroke-width="2.1" opacity=".82"/><line x1="29" y1="74" x2="263" y2="74" stroke="#D7E2EE" stroke-width="2.1" opacity=".82"/><line x1="29" y1="118" x2="263" y2="118" stroke="#D7E2EE" stroke-width="2.1" opacity=".82"/><line x1="29" y1="162" x2="263" y2="162" stroke="#D7E2EE" stroke-width="2.1" opacity=".82"/><line x1="29" y1="206" x2="263" y2="206" stroke="#D7E2EE" stroke-width="2.1" opacity=".82"/><g clip-path="url(#shineClip)"><path d="M-45 23L22 -28 344 255 280 310z" fill="#FFFFFF" opacity=".12"><animateTransform attributeName="transform" type="translate" values="-170 0;210 0;-170 0" dur="7s" repeatCount="indefinite"/></path></g></g>
  </g>

  <g filter="url(#shadow)">
    <rect x="112" y="346" width="138" height="198" rx="20" fill="url(#device)"/>
    <rect x="138" y="390" width="86" height="68" rx="9" fill="#0F172A"/>
    <rect x="156" y="409" width="50" height="17" rx="4" fill="#F8FAFC"/>
    <circle cx="181" cy="443" r="9" fill="#4F8D3D"/>
  </g>
  <g filter="url(#shadow)">
    <rect x="692" y="346" width="88" height="198" rx="20" fill="url(#device)"/>
    <circle cx="736" cy="402" r="14" fill="#111827"/><circle cx="736" cy="402" r="4" fill="#FFFFFF"/>
  </g>
  <g transform="translate(46 250)">
    <rect width="206" height="60" rx="30" fill="#F4C461" opacity=".98"/>
    <text x="103" y="40" text-anchor="middle" font-family="Arial, sans-serif" font-size="29" font-weight="900" fill="#0F172A">N-Type</text>
  </g>
</svg>
