<?xml version="1.0" encoding="UTF-8"?>
<svg xmlns="http://www.w3.org/2000/svg" width="900" height="620" viewBox="0 0 900 620" role="img" aria-label="Трифазна 12kW Deye 16kWh">
  <defs>
    <linearGradient id="bg" x1="0" y1="0" x2="1" y2="1"><stop offset="0" stop-color="#082C4E"/><stop offset=".55" stop-color="#0C5836"/><stop offset="1" stop-color="#C38A22"/></linearGradient>
    <radialGradient id="warm" cx=".72" cy=".42" r=".7"><stop offset="0" stop-color="#F5C45E" stop-opacity=".42"/><stop offset="1" stop-color="#F5C45E" stop-opacity="0"/></radialGradient>
    <linearGradient id="panelGlass" x1="0" y1="0" x2="1" y2="1"><stop offset="0" stop-color="#3B6FA7"/><stop offset=".42" stop-color="#132541"/><stop offset="1" stop-color="#020617"/></linearGradient>
    <linearGradient id="deviceFront" x1="0" y1="0" x2="1" y2="1"><stop offset="0" stop-color="#FFFFFF"/><stop offset="1" stop-color="#DCE5EE"/></linearGradient>
    <linearGradient id="deviceSide" x1="0" y1="0" x2="1" y2="1"><stop offset="0" stop-color="#EEF3F8"/><stop offset="1" stop-color="#B8C5D2"/></linearGradient>
    <linearGradient id="grass" x1="0" y1="0" x2="0" y2="1"><stop offset="0" stop-color="#91D363"/><stop offset=".58" stop-color="#4F8D3D"/><stop offset="1" stop-color="#17482F"/></linearGradient>
  </defs>
  <rect width="900" height="620" rx="34" fill="url(#bg)"/>
  <rect width="900" height="620" rx="34" fill="url(#warm)"/>
  <path class="offer-grass" d="M0 492c106 -35 204 -31 310 -4 118 29 219 29 337 -5 102 -29 187 -23 253 11v126H0z" fill="url(#grass)"/>
  <path class="offer-grass" d="M0 560c110 -22 216 -18 326 0 115 19 232 18 348 -2 92 -16 169 -12 226 9v53H0z" fill="#143F2A" opacity=".48"/>
  <path d="M16 606c-8 -22 -3 -34 4 -43" stroke="#A6DF76" stroke-width="4" stroke-linecap="round" opacity=".76"/><path d="M54 606c9 -29 14 -41 21 -50" stroke="#A6DF76" stroke-width="4" stroke-linecap="round" opacity=".76"/><path d="M92 606c-8 -36 -3 -48 4 -57" stroke="#A6DF76" stroke-width="4" stroke-linecap="round" opacity=".76"/><path d="M130 606c9 -43 14 -55 21 -64" stroke="#A6DF76" stroke-width="4" stroke-linecap="round" opacity=".76"/><path d="M168 606c-8 -22 -3 -34 4 -43" stroke="#A6DF76" stroke-width="4" stroke-linecap="round" opacity=".76"/><path d="M206 606c9 -29 14 -41 21 -50" stroke="#A6DF76" stroke-width="4" stroke-linecap="round" opacity=".76"/><path d="M244 606c-8 -36 -3 -48 4 -57" stroke="#A6DF76" stroke-width="4" stroke-linecap="round" opacity=".76"/><path d="M282 606c9 -43 14 -55 21 -64" stroke="#A6DF76" stroke-width="4" stroke-linecap="round" opacity=".76"/><path d="M320 606c-8 -22 -3 -34 4 -43" stroke="#A6DF76" stroke-width="4" stroke-linecap="round" opacity=".76"/><path d="M358 606c9 -29 14 -41 21 -50" stroke="#A6DF76" stroke-width="4" stroke-linecap="round" opacity=".76"/><path d="M396 606c-8 -36 -3 -48 4 -57" stroke="#A6DF76" stroke-width="4" stroke-linecap="round" opacity=".76"/><path d="M434 606c9 -43 14 -55 21 -64" stroke="#A6DF76" stroke-width="4" stroke-linecap="round" opacity=".76"/><path d="M472 606c-8 -22 -3 -34 4 -43" stroke="#A6DF76" stroke-width="4" stroke-linecap="round" opacity=".76"/><path d="M510 606c9 -29 14 -41 21 -50" stroke="#A6DF76" stroke-width="4" stroke-linecap="round" opacity=".76"/><path d="M548 606c-8 -36 -3 -48 4 -57" stroke="#A6DF76" stroke-width="4" stroke-linecap="round" opacity=".76"/><path d="M586 606c9 -43 14 -55 21 -64" stroke="#A6DF76" stroke-width="4" stroke-linecap="round" opacity=".76"/><path d="M624 606c-8 -22 -3 -34 4 -43" stroke="#A6DF76" stroke-width="4" stroke-linecap="round" opacity=".76"/><path d="M662 606c9 -29 14 -41 21 -50" stroke="#A6DF76" stroke-width="4" stroke-linecap="round" opacity=".76"/><path d="M700 606c-8 -36 -3 -48 4 -57" stroke="#A6DF76" stroke-width="4" stroke-linecap="round" opacity=".76"/><path d="M738 606c9 -43 14 -55 21 -64" stroke="#A6DF76" stroke-width="4" stroke-linecap="round" opacity=".76"/><path d="M776 606c-8 -22 -3 -34 4 -43" stroke="#A6DF76" stroke-width="4" stroke-linecap="round" opacity=".76"/><path d="M814 606c9 -29 14 -41 21 -50" stroke="#A6DF76" stroke-width="4" stroke-linecap="round" opacity=".76"/><path d="M852 606c-8 -36 -3 -48 4 -57" stroke="#A6DF76" stroke-width="4" stroke-linecap="round" opacity=".76"/><path d="M890 606c9 -43 14 -55 21 -64" stroke="#A6DF76" stroke-width="4" stroke-linecap="round" opacity=".76"/>

  <g font-family="Arial, sans-serif" text-anchor="middle">
    <text x="450" y="70" font-size="46" font-weight="900" fill="#FFFFFF">Трифазна</text>
    <text x="450" y="144" font-size="80" font-weight="900" fill="#F4C461">12kW + Deye</text>
    <text x="450" y="198" font-size="40" font-weight="900" fill="#FFFFFF">батерия 16kWh</text>
  </g>

  <g class="solar-module">
    <g class="panel-3d" transform="translate(230 274) rotate(-9)">
    <ellipse cx="136" cy="263" rx="117.76" ry="16" fill="#020617" opacity=".24"/>
    <polygon points="18,18 274,18 256,0 0,0" fill="#FFFFFF"/>
    <polygon points="256,0 274,18 274,256 256,238" fill="#CBD5E1"/>
    <polygon points="0,0 256,0 256,238 0,238" fill="#F8FAFC"/>
    <rect x="14" y="14" width="228" height="210" rx="8" fill="#071322"/>
    <rect x="22" y="22" width="212" height="194" rx="5" fill="url(#panelGlass)"/>
    <line x1="56.57142857142857" y1="29" x2="56.57142857142857" y2="209" stroke="#DCE8F4" stroke-width="2.4" opacity=".78"/><line x1="85.14285714285714" y1="29" x2="85.14285714285714" y2="209" stroke="#DCE8F4" stroke-width="2.4" opacity=".78"/><line x1="113.71428571428572" y1="29" x2="113.71428571428572" y2="209" stroke="#DCE8F4" stroke-width="2.4" opacity=".78"/><line x1="142.28571428571428" y1="29" x2="142.28571428571428" y2="209" stroke="#DCE8F4" stroke-width="2.4" opacity=".78"/><line x1="170.85714285714286" y1="29" x2="170.85714285714286" y2="209" stroke="#DCE8F4" stroke-width="2.4" opacity=".78"/><line x1="199.42857142857144" y1="29" x2="199.42857142857144" y2="209" stroke="#DCE8F4" stroke-width="2.4" opacity=".78"/><line x1="28" y1="65" x2="228" y2="65" stroke="#DCE8F4" stroke-width="2.4" opacity=".78"/><line x1="28" y1="101" x2="228" y2="101" stroke="#DCE8F4" stroke-width="2.4" opacity=".78"/><line x1="28" y1="137" x2="228" y2="137" stroke="#DCE8F4" stroke-width="2.4" opacity=".78"/><line x1="28" y1="173" x2="228" y2="173" stroke="#DCE8F4" stroke-width="2.4" opacity=".78"/>
    <path d="M43 29L221 202" stroke="#FFFFFF" stroke-width="8" opacity=".1"/>
  </g>
    <g class="panel-3d" transform="translate(310 250) rotate(-4)">
    <ellipse cx="146" cy="287" rx="126.96000000000001" ry="16" fill="#020617" opacity=".24"/>
    <polygon points="18,18 294,18 276,0 0,0" fill="#FFFFFF"/>
    <polygon points="276,0 294,18 294,280 276,262" fill="#CBD5E1"/>
    <polygon points="0,0 276,0 276,262 0,262" fill="#F8FAFC"/>
    <rect x="14" y="14" width="248" height="234" rx="8" fill="#071322"/>
    <rect x="22" y="22" width="232" height="218" rx="5" fill="url(#panelGlass)"/>
    <line x1="59.42857142857143" y1="29" x2="59.42857142857143" y2="233" stroke="#DCE8F4" stroke-width="2.4" opacity=".78"/><line x1="90.85714285714286" y1="29" x2="90.85714285714286" y2="233" stroke="#DCE8F4" stroke-width="2.4" opacity=".78"/><line x1="122.28571428571428" y1="29" x2="122.28571428571428" y2="233" stroke="#DCE8F4" stroke-width="2.4" opacity=".78"/><line x1="153.71428571428572" y1="29" x2="153.71428571428572" y2="233" stroke="#DCE8F4" stroke-width="2.4" opacity=".78"/><line x1="185.14285714285714" y1="29" x2="185.14285714285714" y2="233" stroke="#DCE8F4" stroke-width="2.4" opacity=".78"/><line x1="216.57142857142856" y1="29" x2="216.57142857142856" y2="233" stroke="#DCE8F4" stroke-width="2.4" opacity=".78"/><line x1="28" y1="69.8" x2="248" y2="69.8" stroke="#DCE8F4" stroke-width="2.4" opacity=".78"/><line x1="28" y1="110.6" x2="248" y2="110.6" stroke="#DCE8F4" stroke-width="2.4" opacity=".78"/><line x1="28" y1="151.39999999999998" x2="248" y2="151.39999999999998" stroke="#DCE8F4" stroke-width="2.4" opacity=".78"/><line x1="28" y1="192.2" x2="248" y2="192.2" stroke="#DCE8F4" stroke-width="2.4" opacity=".78"/>
    <path d="M43 29L241 226" stroke="#FFFFFF" stroke-width="8" opacity=".1"/>
  </g>
    <g class="panel-3d" transform="translate(398 230) rotate(0)">
    <ellipse cx="161" cy="319" rx="140.76000000000002" ry="16" fill="#020617" opacity=".24"/>
    <polygon points="18,18 324,18 306,0 0,0" fill="#FFFFFF"/>
    <polygon points="306,0 324,18 324,312 306,294" fill="#CBD5E1"/>
    <polygon points="0,0 306,0 306,294 0,294" fill="#F8FAFC"/>
    <rect x="14" y="14" width="278" height="266" rx="8" fill="#071322"/>
    <rect x="22" y="22" width="262" height="250" rx="5" fill="url(#panelGlass)"/>
    <line x1="63.714285714285715" y1="29" x2="63.714285714285715" y2="265" stroke="#DCE8F4" stroke-width="2.4" opacity=".78"/><line x1="99.42857142857143" y1="29" x2="99.42857142857143" y2="265" stroke="#DCE8F4" stroke-width="2.4" opacity=".78"/><line x1="135.14285714285714" y1="29" x2="135.14285714285714" y2="265" stroke="#DCE8F4" stroke-width="2.4" opacity=".78"/><line x1="170.85714285714286" y1="29" x2="170.85714285714286" y2="265" stroke="#DCE8F4" stroke-width="2.4" opacity=".78"/><line x1="206.57142857142858" y1="29" x2="206.57142857142858" y2="265" stroke="#DCE8F4" stroke-width="2.4" opacity=".78"/><line x1="242.28571428571428" y1="29" x2="242.28571428571428" y2="265" stroke="#DCE8F4" stroke-width="2.4" opacity=".78"/><line x1="28" y1="76.2" x2="278" y2="76.2" stroke="#DCE8F4" stroke-width="2.4" opacity=".78"/><line x1="28" y1="123.4" x2="278" y2="123.4" stroke="#DCE8F4" stroke-width="2.4" opacity=".78"/><line x1="28" y1="170.60000000000002" x2="278" y2="170.60000000000002" stroke="#DCE8F4" stroke-width="2.4" opacity=".78"/><line x1="28" y1="217.8" x2="278" y2="217.8" stroke="#DCE8F4" stroke-width="2.4" opacity=".78"/>
    <path d="M43 29L271 258" stroke="#FFFFFF" stroke-width="8" opacity=".1"/>
  </g>
  </g>

  <g class="hero-product">
  <g class="inverter-3d">
    <ellipse cx="144" cy="564" rx="96" ry="18" fill="#020617" opacity=".26"/>
    <polygon points="82,326 210,326 232,348 104,348" fill="#FFFFFF"/>
    <polygon points="210,326 232,348 232,548 210,526" fill="url(#deviceSide)"/>
    <rect x="82" y="326" width="128" height="220" rx="22" fill="url(#deviceFront)"/>
    <rect x="108" y="382" width="76" height="72" rx="10" fill="#0F172A"/>
    <rect x="126" y="404" width="40" height="17" rx="4" fill="#F8FAFC"/>
    <circle cx="146" cy="440" r="9" fill="#4F8D3D"/>
  </g>
  </g>
  <g class="hero-product">
  <g class="battery-3d">
    <ellipse cx="784" cy="564" rx="62.4" ry="18" fill="#020617" opacity=".24"/>
    <polygon points="724,318 828,318 850,340 746,340" fill="#FFFFFF"/>
    <polygon points="828,318 850,340 850,550 828,528" fill="url(#deviceSide)"/>
    <rect x="724" y="318" width="104" height="232" rx="23" fill="url(#deviceFront)"/>
    <circle cx="776" cy="388" r="16" fill="#0F172A"/><circle cx="776" cy="388" r="5" fill="#FFFFFF"/>
  </g>
  </g>
  <g class="free-install-badge" transform="translate(24 228)">
    <rect width="320" height="96" rx="30" fill="#F4C461" opacity=".98"/>
    <rect x="9" y="9" width="302" height="78" rx="24" fill="none" stroke="#FFFFFF" stroke-width="5" opacity=".76"/>
    <text x="160" y="42" text-anchor="middle" font-family="Arial, sans-serif" font-size="31" font-weight="900" fill="#064E3B">БЕЗПЛАТЕН</text>
    <text x="160" y="76" text-anchor="middle" font-family="Arial, sans-serif" font-size="34" font-weight="900" fill="#064E3B">МОНТАЖ</text>
  </g>
</svg>
